<?xml version="1.0" standalone="no"?>
<svg viewBox="0 0 200 200" xmlns="http://www.w3.org/2000/svg">
  <path fill="#6c63ff" d="M38.6,-55.8C49.5,-53.1,57.4,-41.5,58.1,-29.6C58.8,-17.7,52.2,-5.6,52.6,9.2C53,24,60.4,41.3,57.1,54.8C53.7,68.2,39.6,77.7,26.3,74.8C13,72,0.4,56.8,-15.2,52.1C-30.8,47.4,-49.5,53.2,-53.7,47.2C-58,41.1,-47.9,23.3,-47,8.7C-46,-5.9,-54.3,-17.2,-55.4,-29.7C-56.6,-42.2,-50.6,-55.8,-40.2,-58.7C-29.7,-61.6,-14.9,-53.9,-0.5,-53.1C13.9,-52.4,27.7,-58.6,38.6,-55.8Z" transform="translate(100 100)" />
</svg>
