<?xml version="1.0" standalone="no"?>
<svg viewBox="0 0 200 200" xmlns="http://www.w3.org/2000/svg">
  <path fill="#6c63ff" d="M26.1,-42.4C37,-33.5,51.2,-31.7,59.2,-24.1C67.2,-16.5,69,-3.2,70.3,12.4C71.7,28.1,72.8,46,65.1,58.3C57.4,70.5,41,77.2,26.2,74.9C11.5,72.7,-1.7,61.5,-13.5,54.3C-25.4,47.1,-36.1,43.8,-46.1,37.2C-56.2,30.6,-65.7,20.7,-68.2,9.3C-70.7,-2.2,-66.1,-15.2,-59.6,-26.2C-53,-37.3,-44.3,-46.4,-34.1,-55.6C-23.8,-64.8,-11.9,-74,-2.2,-70.6C7.6,-67.3,15.1,-51.3,26.1,-42.4Z" transform="translate(100 100)" />
</svg>
