<?xml version="1.0" standalone="no"?>
<svg viewBox="0 0 200 200" xmlns="http://www.w3.org/2000/svg">
  <path fill="#6c63ff" d="M22.1,-30.5C31.6,-28.3,44.2,-27.1,47.6,-21.3C51,-15.4,45.2,-4.9,44.5,7.1C43.8,19,48.2,32.3,42.5,34.1C36.7,35.9,20.8,26.3,10.8,22.8C0.8,19.3,-3.2,22.1,-14.8,28.6C-26.3,35.2,-45.4,45.5,-44.6,41.4C-43.8,37.3,-23.1,18.8,-24.5,4C-25.9,-10.9,-49.5,-22.1,-58,-36C-66.5,-49.9,-59.9,-66.4,-47.7,-67.4C-35.5,-68.3,-17.8,-53.8,-5.7,-44.9C6.3,-36,12.6,-32.7,22.1,-30.5Z" transform="translate(100 100)" />
</svg>
